# xmcd
#
# Track frame offsets:
#	150
#	16564
#	40930
#	56578
#	70251
#	91013
#	108800
#	122242
#	136030
#	147470
#	158584
#
# Disc length: 2310 seconds
#
# Revision: 1
# Processed by: cddbd v1.5.2PL0 Copyright (c) Steve Scherf et al.
# Submitted via: audiograbber 1.83.01
#
DISCID=8409040b
DTITLE=Various Artist - CDX 626
DYEAR=2015
DGENRE=Country
TTITLE0=Carrie Underwood - Heartbeat
TTITLE1=Eric Church - Mr Misunderstood
TTITLE2=Tony Jackson - Drink By Drink
TTITLE3=Ray Price - No More Songs To Sing
TTITLE4=Lloyd Tosoff and The Redneck Allstars - One Shot At A Time
TTITLE5=Frank Ortega - Tell Me
TTITLE6=Teea Goans - Christmas Time Is Here
TTITLE7=SaraBeth - Cowboy For Christmas
TTITLE8=Stephanie Rabus - That Red Nosed Reindeer
TTITLE9=Haley and Michaels - The Very Merry Little Christmas Medley
TTITLE10=Lee Anna McGuire - You And Me And The Christmas Tree
EXTD=
EXTT0=
EXTT1=
EXTT2=
EXTT3=
EXTT4=
EXTT5=
EXTT6=
EXTT7=
EXTT8=
EXTT9=
EXTT10=
PLAYORDER=
